<mxfile host="app.diagrams.net" agent="Mozilla/5.0 (Macintosh; Intel Mac OS X 10_15_7) AppleWebKit/537.36 (KHTML, like Gecko) Chrome/127.0.0.0 Safari/537.36" version="24.7.6">
  <diagram name="Page-1" id="0QDC5qbreHVhUufxlDPc">
    <mxGraphModel dx="453" dy="333" grid="1" gridSize="10" guides="1" tooltips="1" connect="1" arrows="1" fold="1" page="1" pageScale="1" pageWidth="827" pageHeight="1169" math="0" shadow="0">
      <root>
        <mxCell id="0" />
        <mxCell id="1" parent="0" />
        <mxCell id="wWSIzz2eOnMeMm4guEhj-3" value="Inicio" style="ellipse;whiteSpace=wrap;html=1;" parent="1" vertex="1">
          <mxGeometry x="35" y="100" width="130" height="80" as="geometry" />
        </mxCell>
        <mxCell id="wWSIzz2eOnMeMm4guEhj-4" value="Leer Numero 1" style="shape=parallelogram;perimeter=parallelogramPerimeter;whiteSpace=wrap;html=1;fixedSize=1;" parent="1" vertex="1">
          <mxGeometry x="40" y="230" width="120" height="60" as="geometry" />
        </mxCell>
        <mxCell id="wWSIzz2eOnMeMm4guEhj-5" value="Leer Numero 2" style="shape=parallelogram;perimeter=parallelogramPerimeter;whiteSpace=wrap;html=1;fixedSize=1;" parent="1" vertex="1">
          <mxGeometry x="40" y="330" width="120" height="60" as="geometry" />
        </mxCell>
        <mxCell id="wWSIzz2eOnMeMm4guEhj-7" value="" style="endArrow=classic;html=1;rounded=0;exitX=0.5;exitY=1;exitDx=0;exitDy=0;entryX=0.5;entryY=0;entryDx=0;entryDy=0;" parent="1" source="wWSIzz2eOnMeMm4guEhj-3" target="wWSIzz2eOnMeMm4guEhj-4" edge="1">
          <mxGeometry width="50" height="50" relative="1" as="geometry">
            <mxPoint x="125" y="290" as="sourcePoint" />
            <mxPoint x="175" y="240" as="targetPoint" />
          </mxGeometry>
        </mxCell>
        <mxCell id="wWSIzz2eOnMeMm4guEhj-8" value="" style="endArrow=classic;html=1;rounded=0;exitX=0.5;exitY=1;exitDx=0;exitDy=0;entryX=0.5;entryY=0;entryDx=0;entryDy=0;" parent="1" source="wWSIzz2eOnMeMm4guEhj-4" target="wWSIzz2eOnMeMm4guEhj-5" edge="1">
          <mxGeometry width="50" height="50" relative="1" as="geometry">
            <mxPoint x="125" y="290" as="sourcePoint" />
            <mxPoint x="175" y="320" as="targetPoint" />
          </mxGeometry>
        </mxCell>
        <mxCell id="wWSIzz2eOnMeMm4guEhj-9" value="Numero 1 + Numero 2" style="rounded=0;whiteSpace=wrap;html=1;" parent="1" vertex="1">
          <mxGeometry x="30" y="430" width="130" height="60" as="geometry" />
        </mxCell>
        <mxCell id="wWSIzz2eOnMeMm4guEhj-10" value="" style="endArrow=classic;html=1;rounded=0;exitX=0.5;exitY=1;exitDx=0;exitDy=0;entryX=0.543;entryY=-0.027;entryDx=0;entryDy=0;entryPerimeter=0;" parent="1" source="wWSIzz2eOnMeMm4guEhj-5" target="wWSIzz2eOnMeMm4guEhj-9" edge="1">
          <mxGeometry width="50" height="50" relative="1" as="geometry">
            <mxPoint x="125" y="450" as="sourcePoint" />
            <mxPoint x="175" y="400" as="targetPoint" />
          </mxGeometry>
        </mxCell>
        <mxCell id="wWSIzz2eOnMeMm4guEhj-11" value="Mostrar Resultado" style="shape=parallelogram;perimeter=parallelogramPerimeter;whiteSpace=wrap;html=1;fixedSize=1;" parent="1" vertex="1">
          <mxGeometry x="30" y="520" width="135" height="60" as="geometry" />
        </mxCell>
        <mxCell id="wWSIzz2eOnMeMm4guEhj-12" value="" style="endArrow=classic;html=1;rounded=0;exitX=0.5;exitY=1;exitDx=0;exitDy=0;entryX=0.5;entryY=0;entryDx=0;entryDy=0;" parent="1" source="wWSIzz2eOnMeMm4guEhj-9" target="wWSIzz2eOnMeMm4guEhj-11" edge="1">
          <mxGeometry width="50" height="50" relative="1" as="geometry">
            <mxPoint x="125" y="490" as="sourcePoint" />
            <mxPoint x="175" y="440" as="targetPoint" />
          </mxGeometry>
        </mxCell>
        <mxCell id="wWSIzz2eOnMeMm4guEhj-13" value="Fin" style="ellipse;whiteSpace=wrap;html=1;" parent="1" vertex="1">
          <mxGeometry x="55" y="640" width="85" height="60" as="geometry" />
        </mxCell>
        <mxCell id="wWSIzz2eOnMeMm4guEhj-14" value="" style="endArrow=classic;html=1;rounded=0;exitX=0.5;exitY=1;exitDx=0;exitDy=0;entryX=0.5;entryY=0;entryDx=0;entryDy=0;" parent="1" source="wWSIzz2eOnMeMm4guEhj-11" target="wWSIzz2eOnMeMm4guEhj-13" edge="1">
          <mxGeometry width="50" height="50" relative="1" as="geometry">
            <mxPoint x="155" y="660" as="sourcePoint" />
            <mxPoint x="205" y="610" as="targetPoint" />
          </mxGeometry>
        </mxCell>
        <mxCell id="dUIdOPPNoVDR88RISOie-1" value="Inicio" style="ellipse;whiteSpace=wrap;html=1;" vertex="1" parent="1">
          <mxGeometry x="220" y="100" width="130" height="80" as="geometry" />
        </mxCell>
        <mxCell id="dUIdOPPNoVDR88RISOie-2" value="Leer Numero 1" style="shape=parallelogram;perimeter=parallelogramPerimeter;whiteSpace=wrap;html=1;fixedSize=1;" vertex="1" parent="1">
          <mxGeometry x="225" y="230" width="120" height="60" as="geometry" />
        </mxCell>
        <mxCell id="dUIdOPPNoVDR88RISOie-3" value="Leer Numero 2" style="shape=parallelogram;perimeter=parallelogramPerimeter;whiteSpace=wrap;html=1;fixedSize=1;" vertex="1" parent="1">
          <mxGeometry x="225" y="330" width="120" height="60" as="geometry" />
        </mxCell>
        <mxCell id="dUIdOPPNoVDR88RISOie-4" value="" style="endArrow=classic;html=1;rounded=0;exitX=0.5;exitY=1;exitDx=0;exitDy=0;entryX=0.5;entryY=0;entryDx=0;entryDy=0;" edge="1" parent="1" source="dUIdOPPNoVDR88RISOie-1" target="dUIdOPPNoVDR88RISOie-2">
          <mxGeometry width="50" height="50" relative="1" as="geometry">
            <mxPoint x="310" y="290" as="sourcePoint" />
            <mxPoint x="360" y="240" as="targetPoint" />
          </mxGeometry>
        </mxCell>
        <mxCell id="dUIdOPPNoVDR88RISOie-5" value="" style="endArrow=classic;html=1;rounded=0;exitX=0.5;exitY=1;exitDx=0;exitDy=0;entryX=0.5;entryY=0;entryDx=0;entryDy=0;" edge="1" parent="1" source="dUIdOPPNoVDR88RISOie-2" target="dUIdOPPNoVDR88RISOie-3">
          <mxGeometry width="50" height="50" relative="1" as="geometry">
            <mxPoint x="310" y="290" as="sourcePoint" />
            <mxPoint x="360" y="320" as="targetPoint" />
          </mxGeometry>
        </mxCell>
        <mxCell id="dUIdOPPNoVDR88RISOie-6" value="Numero 1 - Numero 2" style="rounded=0;whiteSpace=wrap;html=1;" vertex="1" parent="1">
          <mxGeometry x="215" y="430" width="130" height="60" as="geometry" />
        </mxCell>
        <mxCell id="dUIdOPPNoVDR88RISOie-7" value="" style="endArrow=classic;html=1;rounded=0;exitX=0.5;exitY=1;exitDx=0;exitDy=0;entryX=0.543;entryY=-0.027;entryDx=0;entryDy=0;entryPerimeter=0;" edge="1" parent="1" source="dUIdOPPNoVDR88RISOie-3" target="dUIdOPPNoVDR88RISOie-6">
          <mxGeometry width="50" height="50" relative="1" as="geometry">
            <mxPoint x="310" y="450" as="sourcePoint" />
            <mxPoint x="360" y="400" as="targetPoint" />
          </mxGeometry>
        </mxCell>
        <mxCell id="dUIdOPPNoVDR88RISOie-8" value="Mostrar Resultado" style="shape=parallelogram;perimeter=parallelogramPerimeter;whiteSpace=wrap;html=1;fixedSize=1;" vertex="1" parent="1">
          <mxGeometry x="215" y="520" width="135" height="60" as="geometry" />
        </mxCell>
        <mxCell id="dUIdOPPNoVDR88RISOie-9" value="" style="endArrow=classic;html=1;rounded=0;exitX=0.5;exitY=1;exitDx=0;exitDy=0;entryX=0.5;entryY=0;entryDx=0;entryDy=0;" edge="1" parent="1" source="dUIdOPPNoVDR88RISOie-6" target="dUIdOPPNoVDR88RISOie-8">
          <mxGeometry width="50" height="50" relative="1" as="geometry">
            <mxPoint x="310" y="490" as="sourcePoint" />
            <mxPoint x="360" y="440" as="targetPoint" />
          </mxGeometry>
        </mxCell>
        <mxCell id="dUIdOPPNoVDR88RISOie-10" value="Fin" style="ellipse;whiteSpace=wrap;html=1;" vertex="1" parent="1">
          <mxGeometry x="240" y="640" width="85" height="60" as="geometry" />
        </mxCell>
        <mxCell id="dUIdOPPNoVDR88RISOie-11" value="" style="endArrow=classic;html=1;rounded=0;exitX=0.5;exitY=1;exitDx=0;exitDy=0;entryX=0.5;entryY=0;entryDx=0;entryDy=0;" edge="1" parent="1" source="dUIdOPPNoVDR88RISOie-8" target="dUIdOPPNoVDR88RISOie-10">
          <mxGeometry width="50" height="50" relative="1" as="geometry">
            <mxPoint x="340" y="660" as="sourcePoint" />
            <mxPoint x="390" y="610" as="targetPoint" />
          </mxGeometry>
        </mxCell>
        <mxCell id="dUIdOPPNoVDR88RISOie-23" style="edgeStyle=none;curved=1;rounded=0;orthogonalLoop=1;jettySize=auto;html=1;fontSize=12;startSize=8;endSize=8;" edge="1" parent="1" source="dUIdOPPNoVDR88RISOie-12" target="dUIdOPPNoVDR88RISOie-13">
          <mxGeometry relative="1" as="geometry" />
        </mxCell>
        <mxCell id="dUIdOPPNoVDR88RISOie-12" value="Inicio" style="ellipse;whiteSpace=wrap;html=1;" vertex="1" parent="1">
          <mxGeometry x="425" y="100" width="120" height="80" as="geometry" />
        </mxCell>
        <mxCell id="dUIdOPPNoVDR88RISOie-22" style="edgeStyle=none;curved=1;rounded=0;orthogonalLoop=1;jettySize=auto;html=1;fontSize=12;startSize=8;endSize=8;" edge="1" parent="1" source="dUIdOPPNoVDR88RISOie-13" target="dUIdOPPNoVDR88RISOie-14">
          <mxGeometry relative="1" as="geometry" />
        </mxCell>
        <mxCell id="dUIdOPPNoVDR88RISOie-13" value="Leer Numero 1" style="shape=parallelogram;perimeter=parallelogramPerimeter;whiteSpace=wrap;html=1;fixedSize=1;" vertex="1" parent="1">
          <mxGeometry x="425" y="220" width="120" height="50" as="geometry" />
        </mxCell>
        <mxCell id="dUIdOPPNoVDR88RISOie-16" value="" style="edgeStyle=none;curved=1;rounded=0;orthogonalLoop=1;jettySize=auto;html=1;fontSize=12;startSize=8;endSize=8;" edge="1" parent="1" source="dUIdOPPNoVDR88RISOie-14" target="dUIdOPPNoVDR88RISOie-15">
          <mxGeometry relative="1" as="geometry" />
        </mxCell>
        <mxCell id="dUIdOPPNoVDR88RISOie-14" value="Leer Numero 2" style="shape=parallelogram;perimeter=parallelogramPerimeter;whiteSpace=wrap;html=1;fixedSize=1;" vertex="1" parent="1">
          <mxGeometry x="415" y="320" width="120" height="60" as="geometry" />
        </mxCell>
        <mxCell id="dUIdOPPNoVDR88RISOie-15" value="Numero 1 / Numero 2" style="whiteSpace=wrap;html=1;" vertex="1" parent="1">
          <mxGeometry x="415" y="430" width="120" height="60" as="geometry" />
        </mxCell>
        <mxCell id="dUIdOPPNoVDR88RISOie-19" value="" style="edgeStyle=none;curved=1;rounded=0;orthogonalLoop=1;jettySize=auto;html=1;fontSize=12;startSize=8;endSize=8;entryX=0.5;entryY=0;entryDx=0;entryDy=0;" edge="1" parent="1" source="dUIdOPPNoVDR88RISOie-17" target="dUIdOPPNoVDR88RISOie-20">
          <mxGeometry relative="1" as="geometry">
            <mxPoint x="475" y="630" as="targetPoint" />
          </mxGeometry>
        </mxCell>
        <mxCell id="dUIdOPPNoVDR88RISOie-17" value="Mostrar Resultado" style="shape=parallelogram;perimeter=parallelogramPerimeter;whiteSpace=wrap;html=1;fixedSize=1;" vertex="1" parent="1">
          <mxGeometry x="415" y="520" width="120" height="60" as="geometry" />
        </mxCell>
        <mxCell id="dUIdOPPNoVDR88RISOie-20" value="Fin" style="ellipse;whiteSpace=wrap;html=1;" vertex="1" parent="1">
          <mxGeometry x="425" y="630" width="100" height="70" as="geometry" />
        </mxCell>
        <mxCell id="dUIdOPPNoVDR88RISOie-21" value="" style="endArrow=classic;html=1;rounded=0;fontSize=12;startSize=8;endSize=8;curved=1;entryX=0.5;entryY=0;entryDx=0;entryDy=0;exitX=0.5;exitY=1;exitDx=0;exitDy=0;" edge="1" parent="1" source="dUIdOPPNoVDR88RISOie-15" target="dUIdOPPNoVDR88RISOie-17">
          <mxGeometry width="50" height="50" relative="1" as="geometry">
            <mxPoint x="355" y="430" as="sourcePoint" />
            <mxPoint x="405" y="380" as="targetPoint" />
          </mxGeometry>
        </mxCell>
        <mxCell id="dUIdOPPNoVDR88RISOie-24" style="edgeStyle=none;curved=1;rounded=0;orthogonalLoop=1;jettySize=auto;html=1;fontSize=12;startSize=8;endSize=8;" edge="1" parent="1" source="dUIdOPPNoVDR88RISOie-25" target="dUIdOPPNoVDR88RISOie-27">
          <mxGeometry relative="1" as="geometry" />
        </mxCell>
        <mxCell id="dUIdOPPNoVDR88RISOie-25" value="Inicio" style="ellipse;whiteSpace=wrap;html=1;" vertex="1" parent="1">
          <mxGeometry x="610" y="110" width="120" height="80" as="geometry" />
        </mxCell>
        <mxCell id="dUIdOPPNoVDR88RISOie-26" style="edgeStyle=none;curved=1;rounded=0;orthogonalLoop=1;jettySize=auto;html=1;fontSize=12;startSize=8;endSize=8;" edge="1" parent="1" source="dUIdOPPNoVDR88RISOie-27" target="dUIdOPPNoVDR88RISOie-29">
          <mxGeometry relative="1" as="geometry" />
        </mxCell>
        <mxCell id="dUIdOPPNoVDR88RISOie-27" value="Leer Numero 1" style="shape=parallelogram;perimeter=parallelogramPerimeter;whiteSpace=wrap;html=1;fixedSize=1;" vertex="1" parent="1">
          <mxGeometry x="610" y="230" width="120" height="50" as="geometry" />
        </mxCell>
        <mxCell id="dUIdOPPNoVDR88RISOie-28" value="" style="edgeStyle=none;curved=1;rounded=0;orthogonalLoop=1;jettySize=auto;html=1;fontSize=12;startSize=8;endSize=8;" edge="1" parent="1" source="dUIdOPPNoVDR88RISOie-29" target="dUIdOPPNoVDR88RISOie-30">
          <mxGeometry relative="1" as="geometry" />
        </mxCell>
        <mxCell id="dUIdOPPNoVDR88RISOie-29" value="Leer Numero 2" style="shape=parallelogram;perimeter=parallelogramPerimeter;whiteSpace=wrap;html=1;fixedSize=1;" vertex="1" parent="1">
          <mxGeometry x="600" y="330" width="120" height="60" as="geometry" />
        </mxCell>
        <mxCell id="dUIdOPPNoVDR88RISOie-30" value="Numero 1 * Numero 2" style="whiteSpace=wrap;html=1;" vertex="1" parent="1">
          <mxGeometry x="600" y="440" width="120" height="60" as="geometry" />
        </mxCell>
        <mxCell id="dUIdOPPNoVDR88RISOie-31" value="" style="edgeStyle=none;curved=1;rounded=0;orthogonalLoop=1;jettySize=auto;html=1;fontSize=12;startSize=8;endSize=8;entryX=0.5;entryY=0;entryDx=0;entryDy=0;" edge="1" parent="1" source="dUIdOPPNoVDR88RISOie-32" target="dUIdOPPNoVDR88RISOie-33">
          <mxGeometry relative="1" as="geometry">
            <mxPoint x="660" y="640" as="targetPoint" />
          </mxGeometry>
        </mxCell>
        <mxCell id="dUIdOPPNoVDR88RISOie-32" value="Mostrar Resultado" style="shape=parallelogram;perimeter=parallelogramPerimeter;whiteSpace=wrap;html=1;fixedSize=1;" vertex="1" parent="1">
          <mxGeometry x="600" y="530" width="120" height="60" as="geometry" />
        </mxCell>
        <mxCell id="dUIdOPPNoVDR88RISOie-33" value="Fin" style="ellipse;whiteSpace=wrap;html=1;" vertex="1" parent="1">
          <mxGeometry x="610" y="640" width="100" height="70" as="geometry" />
        </mxCell>
        <mxCell id="dUIdOPPNoVDR88RISOie-34" value="" style="endArrow=classic;html=1;rounded=0;fontSize=12;startSize=8;endSize=8;curved=1;entryX=0.5;entryY=0;entryDx=0;entryDy=0;exitX=0.5;exitY=1;exitDx=0;exitDy=0;" edge="1" parent="1" source="dUIdOPPNoVDR88RISOie-30" target="dUIdOPPNoVDR88RISOie-32">
          <mxGeometry width="50" height="50" relative="1" as="geometry">
            <mxPoint x="540" y="440" as="sourcePoint" />
            <mxPoint x="590" y="390" as="targetPoint" />
          </mxGeometry>
        </mxCell>
        <mxCell id="dUIdOPPNoVDR88RISOie-35" style="edgeStyle=none;curved=1;rounded=0;orthogonalLoop=1;jettySize=auto;html=1;fontSize=12;startSize=8;endSize=8;" edge="1" parent="1" source="dUIdOPPNoVDR88RISOie-36" target="dUIdOPPNoVDR88RISOie-38">
          <mxGeometry relative="1" as="geometry" />
        </mxCell>
        <mxCell id="dUIdOPPNoVDR88RISOie-36" value="Inicio" style="ellipse;whiteSpace=wrap;html=1;" vertex="1" parent="1">
          <mxGeometry x="800" y="110" width="120" height="80" as="geometry" />
        </mxCell>
        <mxCell id="dUIdOPPNoVDR88RISOie-37" style="edgeStyle=none;curved=1;rounded=0;orthogonalLoop=1;jettySize=auto;html=1;fontSize=12;startSize=8;endSize=8;" edge="1" parent="1" source="dUIdOPPNoVDR88RISOie-38" target="dUIdOPPNoVDR88RISOie-40">
          <mxGeometry relative="1" as="geometry" />
        </mxCell>
        <mxCell id="dUIdOPPNoVDR88RISOie-38" value="Leer Numero 1" style="shape=parallelogram;perimeter=parallelogramPerimeter;whiteSpace=wrap;html=1;fixedSize=1;" vertex="1" parent="1">
          <mxGeometry x="800" y="230" width="120" height="50" as="geometry" />
        </mxCell>
        <mxCell id="dUIdOPPNoVDR88RISOie-39" value="" style="edgeStyle=none;curved=1;rounded=0;orthogonalLoop=1;jettySize=auto;html=1;fontSize=12;startSize=8;endSize=8;" edge="1" parent="1" source="dUIdOPPNoVDR88RISOie-40" target="dUIdOPPNoVDR88RISOie-41">
          <mxGeometry relative="1" as="geometry" />
        </mxCell>
        <mxCell id="dUIdOPPNoVDR88RISOie-40" value="Leer Numero 2" style="shape=parallelogram;perimeter=parallelogramPerimeter;whiteSpace=wrap;html=1;fixedSize=1;" vertex="1" parent="1">
          <mxGeometry x="790" y="330" width="120" height="60" as="geometry" />
        </mxCell>
        <mxCell id="dUIdOPPNoVDR88RISOie-41" value="Numero 1 % Numero 2" style="whiteSpace=wrap;html=1;" vertex="1" parent="1">
          <mxGeometry x="790" y="440" width="130" height="60" as="geometry" />
        </mxCell>
        <mxCell id="dUIdOPPNoVDR88RISOie-42" value="" style="edgeStyle=none;curved=1;rounded=0;orthogonalLoop=1;jettySize=auto;html=1;fontSize=12;startSize=8;endSize=8;entryX=0.5;entryY=0;entryDx=0;entryDy=0;" edge="1" parent="1" source="dUIdOPPNoVDR88RISOie-43" target="dUIdOPPNoVDR88RISOie-44">
          <mxGeometry relative="1" as="geometry">
            <mxPoint x="850" y="640" as="targetPoint" />
          </mxGeometry>
        </mxCell>
        <mxCell id="dUIdOPPNoVDR88RISOie-43" value="Mostrar Resultado" style="shape=parallelogram;perimeter=parallelogramPerimeter;whiteSpace=wrap;html=1;fixedSize=1;" vertex="1" parent="1">
          <mxGeometry x="790" y="530" width="120" height="60" as="geometry" />
        </mxCell>
        <mxCell id="dUIdOPPNoVDR88RISOie-44" value="Fin" style="ellipse;whiteSpace=wrap;html=1;" vertex="1" parent="1">
          <mxGeometry x="800" y="640" width="100" height="70" as="geometry" />
        </mxCell>
        <mxCell id="dUIdOPPNoVDR88RISOie-45" value="" style="endArrow=classic;html=1;rounded=0;fontSize=12;startSize=8;endSize=8;curved=1;entryX=0.5;entryY=0;entryDx=0;entryDy=0;exitX=0.5;exitY=1;exitDx=0;exitDy=0;" edge="1" parent="1" source="dUIdOPPNoVDR88RISOie-41" target="dUIdOPPNoVDR88RISOie-43">
          <mxGeometry width="50" height="50" relative="1" as="geometry">
            <mxPoint x="730" y="440" as="sourcePoint" />
            <mxPoint x="780" y="390" as="targetPoint" />
          </mxGeometry>
        </mxCell>
      </root>
    </mxGraphModel>
  </diagram>
</mxfile>
